<?xml version="1.0" standalone="no"?><!DOCTYPE svg PUBLIC "-//W3C//DTD SVG 1.1//EN" "http://www.w3.org/Graphics/SVG/1.1/DTD/svg11.dtd"><svg t="1768404716160" class="icon" viewBox="0 0 1024 1024" version="1.1" xmlns="http://www.w3.org/2000/svg" p-id="18290" xmlns:xlink="http://www.w3.org/1999/xlink" width="200" height="200"><path d="M384 192a32 32 0 0 1 30.762667 23.210667l34.688 121.429333a160 160 0 0 0 109.909333 109.909333l121.429333 34.688a32 32 0 0 1 0 61.525334l-121.429333 34.688a160 160 0 0 0-109.909333 109.909333l-34.688 121.429333a32 32 0 0 1-61.525334 0l-34.688-121.429333a160 160 0 0 0-109.909333-109.909333l-121.429333-34.688a32 32 0 0 1 0-61.525334l121.429333-34.688A160 160 0 0 0 318.549333 336.64l34.688-121.429333A32 32 0 0 1 384 192zM768 64a32 32 0 0 1 31.061333 24.234667l11.008 44.202666c10.069333 40.106667 41.386667 71.424 81.493334 81.493334l44.202666 11.008a32 32 0 0 1 0 62.122666l-44.202666 11.008c-40.106667 10.069333-71.424 41.386667-81.493334 81.493334l-11.008 44.202666a32 32 0 0 1-62.122666 0l-11.008-44.202666a112 112 0 0 0-81.493334-81.493334l-44.202666-11.008a32 32 0 0 1 0-62.122666l44.202666-11.008a112 112 0 0 0 81.493334-81.493334l11.008-44.202666A32 32 0 0 1 768 64zM704 640a32 32 0 0 1 30.378667 21.888l16.810666 50.474667c6.4 19.072 21.333333 34.090667 40.448 40.448l50.474667 16.853333a32 32 0 0 1 0 60.672l-50.474667 16.853333c-19.072 6.4-34.090667 21.333333-40.448 40.448l-16.853333 50.474667a32 32 0 0 1-60.672 0l-16.853333-50.474667a64 64 0 0 0-40.448-40.448l-50.474667-16.853333a32 32 0 0 1 0-60.672l50.474667-16.853333c19.072-6.4 34.090667-21.333333 40.448-40.448l16.853333-50.474667A32 32 0 0 1 704 640z" fill="#0F172A" p-id="18291"></path></svg>