<?xml version="1.0" standalone="no"?><!DOCTYPE svg PUBLIC "-//W3C//DTD SVG 1.1//EN" "http://www.w3.org/Graphics/SVG/1.1/DTD/svg11.dtd"><svg class="icon" width="200px" height="200.00px" viewBox="0 0 1024 1024" version="1.1" xmlns="http://www.w3.org/2000/svg"><path d="M554.688 377.6A199.232 199.232 0 0 0 673.28 490.24l180.032 64.448-197.12 78.528a213.312 213.312 0 0 0-121.6 125.44l-65.28 180.032-45.184-137.408a305.536 305.536 0 0 0-189.44-193.728L85.312 554.688 193.28 522.24A337.28 337.28 0 0 0 411.776 320l57.536-149.312L554.688 377.6z m-85.376-1.28A418.176 418.176 0 0 1 307.2 554.688 384 384 0 0 1 469.312 714.24a290.176 290.176 0 0 1 157.056-152.32l8.064-3.392a277.76 277.76 0 0 1-152.32-151.488l-12.8-30.72zM896 334.528a34.56 34.56 0 0 0 19.2 19.584l31.168 11.136-34.176 13.632a36.416 36.416 0 0 0-20.864 21.76l-11.52 31.552-7.68-23.872a53.824 53.824 0 0 0-32.896-33.664l-25.984-9.408L832 359.68a59.392 59.392 0 0 0 38.016-35.008l9.792-25.984L896 334.528zM768 141.632a56.896 56.896 0 0 0 32.448 29.888l49.024 17.472-53.76 21.376a58.56 58.56 0 0 0-33.28 34.112l-17.472 49.088L732.544 256a85.312 85.312 0 0 0-49.856-51.648L640 190.272l29.44-7.232A92.736 92.736 0 0 0 729.216 128l15.744-42.688 23.04 56.32z" fill="#bfbfbf" /></svg>