<?xml version="1.0" standalone="no"?><!DOCTYPE svg PUBLIC "-//W3C//DTD SVG 1.1//EN" "http://www.w3.org/Graphics/SVG/1.1/DTD/svg11.dtd"><svg class="icon" width="200px" height="200.00px" viewBox="0 0 1024 1024" version="1.1" xmlns="http://www.w3.org/2000/svg"><path d="M823.301859 13.108153a18.290446 18.290446 0 0 0-35.056688 0l-11.431528 38.867196A171.472927 171.472927 0 0 1 660.974155 167.662417l-38.333726 11.431529a18.290446 18.290446 0 0 0-0.07621 34.980477l39.095827 11.736369a171.472927 171.472927 0 0 1 115.077387 115.382227l11.583949 38.867197a18.290446 18.290446 0 0 0 34.980477 0l11.583948-38.867197a171.472927 171.472927 0 0 1 115.077387-115.382227l39.095827-11.736369a18.290446 18.290446 0 0 0-0.07621-35.056687l-38.409936-11.355319A171.472927 171.472927 0 0 1 834.809597 51.899139l-11.431528-38.867197z m-379.526745 271.841746a40.16277 40.16277 0 0 0-76.972292 0l-29.036082 98.006304a281.2156 281.2156 0 0 1-189.915793 189.839583l-97.167991 28.731241a40.16277 40.16277 0 0 0-0.152421 76.972292l98.463565 29.645764a281.2156 281.2156 0 0 1 188.69643 189.15369l29.112292 98.006304a40.16277 40.16277 0 0 0 76.972292 0l29.112292-98.006304a281.2156 281.2156 0 0 1 188.69643-189.15369l98.463565-29.569554a40.16277 40.16277 0 0 0-0.15242-76.972292L662.803199 572.719576a281.2156 281.2156 0 0 1-189.915793-189.839583l-28.959872-98.006304z" /></svg>